<svg xmlns="http://www.w3.org/2000/svg" viewBox="0 0 128 128">
  <path d="M42.67 128c11.78 0 21.33-9.55 21.33-21.33V85.33H42.67c-11.78 0-21.34 9.56-21.34 21.34C21.33 118.45 30.89 128 42.67 128z" fill="#0ACF83"/>
  <path d="M21.33 64c0-11.78 9.56-21.33 21.34-21.33H64v42.66H42.67c-11.78 0-21.34-9.55-21.34-21.33z" fill="#A259FF"/>
  <path d="M21.33 21.33C21.33 9.55 30.89 0 42.67 0H64v42.67H42.67c-11.78 0-21.34-9.56-21.34-21.34z" fill="#F24E1E"/>
  <path d="M64 0h21.33c11.78 0 21.34 9.55 21.34 21.33 0 11.78-9.56 21.34-21.34 21.34H64V0z" fill="#FF7262"/>
  <path d="M106.67 64c0 11.78-9.56 21.33-21.34 21.33-11.78 0-21.33-9.55-21.33-21.33 0-11.78 9.55-21.33 21.33-21.33 11.78 0 21.34 9.55 21.34 21.33z" fill="#1ABCFE"/>
</svg>
