<svg viewBox="0 0 1024 1024" fill="none" xmlns="http://www.w3.org/2000/svg"><path fill-rule="evenodd" clip-rule="evenodd" d="M473.6 379.7C473.6 350.1 498.1 338.5 538.5 338.5C595.6 338.5 667.7 356.8 724.8 389.8V233C662 205.6 600.1 193.9 538.5 193.9C385.6 193.9 282.9 273.1 282.9 392C282.9 579.5 544.3 549.6 544.3 629.1C544.3 664.1 513.9 675.3 471.1 675.3C408.3 675.3 329.5 650.5 266.2 614.1V772.5C335.9 801.4 405.9 814.1 471.1 814.1C627.7 814.1 737.1 737.7 737.1 617.1C737.1 415.4 473.6 452.1 473.6 379.7Z" fill="#fff"/></svg>
